<mxfile host="Electron" agent="Mozilla/5.0 (Windows NT 10.0; Win64; x64) AppleWebKit/537.36 (KHTML, like Gecko) draw.io/24.7.17 Chrome/128.0.6613.36 Electron/32.0.1 Safari/537.36" version="24.7.17">
  <diagram name="PÃ¡gina-1" id="6SOZqAtEXiOr_Rj61H_5">
    <mxGraphModel dx="1134" dy="1910" grid="1" gridSize="10" guides="1" tooltips="1" connect="1" arrows="1" fold="1" page="1" pageScale="1" pageWidth="827" pageHeight="1169" math="0" shadow="0">
      <root>
        <mxCell id="0" />
        <mxCell id="1" parent="0" />
        <mxCell id="GHbYFUKtVofHXuMXQ_GT-27" style="edgeStyle=orthogonalEdgeStyle;rounded=0;orthogonalLoop=1;jettySize=auto;html=1;exitX=1;exitY=0.5;exitDx=0;exitDy=0;entryX=0;entryY=0.5;entryDx=0;entryDy=0;" edge="1" parent="1" source="GHbYFUKtVofHXuMXQ_GT-1" target="GHbYFUKtVofHXuMXQ_GT-4">
          <mxGeometry relative="1" as="geometry" />
        </mxCell>
        <mxCell id="GHbYFUKtVofHXuMXQ_GT-28" style="edgeStyle=orthogonalEdgeStyle;rounded=0;orthogonalLoop=1;jettySize=auto;html=1;exitX=0.941;exitY=0.983;exitDx=0;exitDy=0;entryX=0.083;entryY=1;entryDx=0;entryDy=0;exitPerimeter=0;entryPerimeter=0;" edge="1" parent="1" source="GHbYFUKtVofHXuMXQ_GT-1" target="GHbYFUKtVofHXuMXQ_GT-4">
          <mxGeometry relative="1" as="geometry" />
        </mxCell>
        <mxCell id="GHbYFUKtVofHXuMXQ_GT-1" value="Vigilancia" style="rounded=1;whiteSpace=wrap;html=1;" vertex="1" parent="1">
          <mxGeometry x="440" y="70" width="120" height="60" as="geometry" />
        </mxCell>
        <mxCell id="GHbYFUKtVofHXuMXQ_GT-2" value="" style="ellipse;whiteSpace=wrap;html=1;aspect=fixed;" vertex="1" parent="1">
          <mxGeometry x="485" y="-40" width="30" height="30" as="geometry" />
        </mxCell>
        <mxCell id="GHbYFUKtVofHXuMXQ_GT-20" style="edgeStyle=orthogonalEdgeStyle;rounded=0;orthogonalLoop=1;jettySize=auto;html=1;exitX=0.5;exitY=1;exitDx=0;exitDy=0;entryX=1;entryY=0.5;entryDx=0;entryDy=0;" edge="1" parent="1" source="GHbYFUKtVofHXuMXQ_GT-4" target="GHbYFUKtVofHXuMXQ_GT-10">
          <mxGeometry relative="1" as="geometry" />
        </mxCell>
        <mxCell id="GHbYFUKtVofHXuMXQ_GT-4" value="Pelear" style="rounded=1;whiteSpace=wrap;html=1;" vertex="1" parent="1">
          <mxGeometry x="950" y="70" width="120" height="60" as="geometry" />
        </mxCell>
        <mxCell id="GHbYFUKtVofHXuMXQ_GT-7" value="" style="endArrow=classic;html=1;rounded=0;exitX=0.5;exitY=1;exitDx=0;exitDy=0;entryX=0.5;entryY=0;entryDx=0;entryDy=0;" edge="1" parent="1" source="GHbYFUKtVofHXuMXQ_GT-2" target="GHbYFUKtVofHXuMXQ_GT-1">
          <mxGeometry width="50" height="50" relative="1" as="geometry">
            <mxPoint x="510" y="120" as="sourcePoint" />
            <mxPoint x="570" y="140" as="targetPoint" />
          </mxGeometry>
        </mxCell>
        <mxCell id="GHbYFUKtVofHXuMXQ_GT-21" style="edgeStyle=orthogonalEdgeStyle;rounded=0;orthogonalLoop=1;jettySize=auto;html=1;exitX=0;exitY=0.5;exitDx=0;exitDy=0;entryX=0.5;entryY=1;entryDx=0;entryDy=0;" edge="1" parent="1" source="GHbYFUKtVofHXuMXQ_GT-10" target="GHbYFUKtVofHXuMXQ_GT-1">
          <mxGeometry relative="1" as="geometry" />
        </mxCell>
        <mxCell id="GHbYFUKtVofHXuMXQ_GT-10" value="Huir del combate" style="rounded=1;whiteSpace=wrap;html=1;" vertex="1" parent="1">
          <mxGeometry x="697.5" y="210" width="110" height="60" as="geometry" />
        </mxCell>
        <mxCell id="GHbYFUKtVofHXuMXQ_GT-12" value="" style="endArrow=classic;html=1;rounded=0;exitX=0.75;exitY=1;exitDx=0;exitDy=0;" edge="1" target="GHbYFUKtVofHXuMXQ_GT-13" parent="1" source="GHbYFUKtVofHXuMXQ_GT-10">
          <mxGeometry width="50" height="50" relative="1" as="geometry">
            <mxPoint x="1100" y="475" as="sourcePoint" />
            <mxPoint x="1150" y="425" as="targetPoint" />
          </mxGeometry>
        </mxCell>
        <mxCell id="GHbYFUKtVofHXuMXQ_GT-13" value="" style="ellipse;shadow=0;fillColor=default;gradientColor=none;gradientDirection=radial;" vertex="1" parent="1">
          <mxGeometry x="780" y="360" width="30" height="30" as="geometry" />
        </mxCell>
        <mxCell id="GHbYFUKtVofHXuMXQ_GT-14" value="" style="ellipse;fillColor=none;" vertex="1" parent="1">
          <mxGeometry x="782.5" y="365" width="25" height="20" as="geometry" />
        </mxCell>
        <mxCell id="GHbYFUKtVofHXuMXQ_GT-22" style="edgeStyle=orthogonalEdgeStyle;rounded=0;orthogonalLoop=1;jettySize=auto;html=1;exitX=0.917;exitY=0;exitDx=0;exitDy=0;entryX=0.048;entryY=-0.01;entryDx=0;entryDy=0;entryPerimeter=0;exitPerimeter=0;" edge="1" parent="1" source="GHbYFUKtVofHXuMXQ_GT-1" target="GHbYFUKtVofHXuMXQ_GT-4">
          <mxGeometry relative="1" as="geometry" />
        </mxCell>
        <mxCell id="GHbYFUKtVofHXuMXQ_GT-23" value="Se detecta un enemigo[esta fuera del castillo]/&lt;br&gt;sacar arco y flecha" style="text;html=1;align=center;verticalAlign=middle;resizable=0;points=[];autosize=1;strokeColor=none;fillColor=none;" vertex="1" parent="1">
          <mxGeometry x="617.5" y="13" width="270" height="40" as="geometry" />
        </mxCell>
        <mxCell id="GHbYFUKtVofHXuMXQ_GT-24" value="&lt;span style=&quot;color: rgb(240, 240, 240); font-family: Helvetica; font-size: 12px; font-style: normal; font-variant-ligatures: normal; font-variant-caps: normal; font-weight: 400; letter-spacing: normal; orphans: 2; text-align: center; text-indent: 0px; text-transform: none; widows: 2; word-spacing: 0px; -webkit-text-stroke-width: 0px; white-space: nowrap; background-color: rgb(27, 29, 30); text-decoration-thickness: initial; text-decoration-style: initial; text-decoration-color: initial; display: inline !important; float: none;&quot;&gt;Se detecta un enemigo[esta dentro del castillo]/&lt;/span&gt;&lt;br style=&quot;forced-color-adjust: none; border-color: rgb(0, 0, 0); color: rgb(240, 240, 240); font-family: Helvetica; font-size: 12px; font-style: normal; font-variant-ligatures: normal; font-variant-caps: normal; font-weight: 400; letter-spacing: normal; orphans: 2; text-align: center; text-indent: 0px; text-transform: none; widows: 2; word-spacing: 0px; -webkit-text-stroke-width: 0px; white-space: nowrap; background-color: rgb(27, 29, 30); text-decoration-thickness: initial; text-decoration-style: initial; text-decoration-color: initial;&quot;&gt;&lt;span style=&quot;color: rgb(240, 240, 240); font-family: Helvetica; font-size: 12px; font-style: normal; font-variant-ligatures: normal; font-variant-caps: normal; font-weight: 400; letter-spacing: normal; orphans: 2; text-align: center; text-indent: 0px; text-transform: none; widows: 2; word-spacing: 0px; -webkit-text-stroke-width: 0px; white-space: nowrap; background-color: rgb(27, 29, 30); text-decoration-thickness: initial; text-decoration-style: initial; text-decoration-color: initial; display: inline !important; float: none;&quot;&gt;sacar espada&lt;/span&gt;" style="text;whiteSpace=wrap;html=1;" vertex="1" parent="1">
          <mxGeometry x="617.5" y="60" width="280" height="50" as="geometry" />
        </mxCell>
        <mxCell id="GHbYFUKtVofHXuMXQ_GT-30" value="Se gana el combate/recupera 50% de energia" style="text;html=1;align=center;verticalAlign=middle;resizable=0;points=[];autosize=1;strokeColor=none;fillColor=none;" vertex="1" parent="1">
          <mxGeometry x="595" y="120" width="270" height="30" as="geometry" />
        </mxCell>
        <mxCell id="GHbYFUKtVofHXuMXQ_GT-33" value="" style="curved=1;endArrow=classic;html=1;rounded=0;exitX=1.001;exitY=0.356;exitDx=0;exitDy=0;exitPerimeter=0;entryX=0.993;entryY=0.071;entryDx=0;entryDy=0;entryPerimeter=0;" edge="1" parent="1" source="GHbYFUKtVofHXuMXQ_GT-4" target="GHbYFUKtVofHXuMXQ_GT-4">
          <mxGeometry width="50" height="50" relative="1" as="geometry">
            <mxPoint x="1100" y="90" as="sourcePoint" />
            <mxPoint x="1180" y="130" as="targetPoint" />
            <Array as="points">
              <mxPoint x="1150" y="90" />
              <mxPoint x="1100" y="40" />
            </Array>
          </mxGeometry>
        </mxCell>
        <mxCell id="GHbYFUKtVofHXuMXQ_GT-34" value="se reciben golpes[energia&amp;gt;30%]/&lt;br&gt;reducir energia 10%" style="text;html=1;align=center;verticalAlign=middle;resizable=0;points=[];autosize=1;strokeColor=none;fillColor=none;" vertex="1" parent="1">
          <mxGeometry x="1070" y="100" width="200" height="40" as="geometry" />
        </mxCell>
        <mxCell id="GHbYFUKtVofHXuMXQ_GT-35" value="se reciben golpes[energia&amp;lt;30%]/&lt;br&gt;guardar arma,reducir energia 10%" style="text;html=1;align=center;verticalAlign=middle;resizable=0;points=[];autosize=1;strokeColor=none;fillColor=none;" vertex="1" parent="1">
          <mxGeometry x="807.5" y="190" width="210" height="40" as="geometry" />
        </mxCell>
        <mxCell id="GHbYFUKtVofHXuMXQ_GT-36" value="se reciben golpes[energia&amp;lt;10%]/&lt;br&gt;reducir energia 10%, dejar al &lt;br&gt;personaje fuera del juego" style="text;html=1;align=center;verticalAlign=middle;resizable=0;points=[];autosize=1;strokeColor=none;fillColor=none;" vertex="1" parent="1">
          <mxGeometry x="780" y="280" width="200" height="60" as="geometry" />
        </mxCell>
        <mxCell id="GHbYFUKtVofHXuMXQ_GT-37" value="Pierde de vista al enemigo/&lt;br&gt;aumentar energia 30%" style="text;html=1;align=center;verticalAlign=middle;resizable=0;points=[];autosize=1;strokeColor=none;fillColor=none;" vertex="1" parent="1">
          <mxGeometry x="510" y="200" width="170" height="40" as="geometry" />
        </mxCell>
        <mxCell id="GHbYFUKtVofHXuMXQ_GT-42" value="" style="curved=1;endArrow=classic;html=1;rounded=0;exitX=0.009;exitY=0.906;exitDx=0;exitDy=0;exitPerimeter=0;" edge="1" parent="1" source="GHbYFUKtVofHXuMXQ_GT-10">
          <mxGeometry width="50" height="50" relative="1" as="geometry">
            <mxPoint x="660" y="300" as="sourcePoint" />
            <mxPoint x="740" y="270" as="targetPoint" />
            <Array as="points">
              <mxPoint x="690" y="350" />
              <mxPoint x="720" y="360" />
              <mxPoint x="730" y="330" />
            </Array>
          </mxGeometry>
        </mxCell>
        <mxCell id="GHbYFUKtVofHXuMXQ_GT-43" value="&lt;span style=&quot;color: rgb(240, 240, 240); font-family: Helvetica; font-size: 12px; font-style: normal; font-variant-ligatures: normal; font-variant-caps: normal; font-weight: 400; letter-spacing: normal; orphans: 2; text-align: center; text-indent: 0px; text-transform: none; widows: 2; word-spacing: 0px; -webkit-text-stroke-width: 0px; white-space: nowrap; background-color: rgb(27, 29, 30); text-decoration-thickness: initial; text-decoration-style: initial; text-decoration-color: initial; display: inline !important; float: none;&quot;&gt;se reciben golpes[energia&amp;gt;10%]/&lt;/span&gt;&lt;br style=&quot;forced-color-adjust: none; border-color: rgb(0, 0, 0); color: rgb(240, 240, 240); font-family: Helvetica; font-size: 12px; font-style: normal; font-variant-ligatures: normal; font-variant-caps: normal; font-weight: 400; letter-spacing: normal; orphans: 2; text-align: center; text-indent: 0px; text-transform: none; widows: 2; word-spacing: 0px; -webkit-text-stroke-width: 0px; white-space: nowrap; background-color: rgb(27, 29, 30); text-decoration-thickness: initial; text-decoration-style: initial; text-decoration-color: initial;&quot;&gt;&lt;div style=&quot;text-align: center;&quot;&gt;&lt;span style=&quot;text-wrap: nowrap;&quot;&gt;reducir energia 10%&lt;/span&gt;&lt;/div&gt;" style="text;whiteSpace=wrap;html=1;" vertex="1" parent="1">
          <mxGeometry x="510" y="275" width="210" height="70" as="geometry" />
        </mxCell>
        <mxCell id="GHbYFUKtVofHXuMXQ_GT-44" value="Se crea el persona/&lt;br&gt;Inicializar energia 100%" style="text;html=1;align=center;verticalAlign=middle;resizable=0;points=[];autosize=1;strokeColor=none;fillColor=none;" vertex="1" parent="1">
          <mxGeometry x="350" width="150" height="40" as="geometry" />
        </mxCell>
      </root>
    </mxGraphModel>
  </diagram>
</mxfile>
